<svg viewBox="0 0 64 64" xmlns="http://www.w3.org/2000/svg">
  <circle fill="white" cx="32" cy="32" r="32"></circle>
  <path d="M31.5552666,49.9910558 C35.893368,50.088448 39.7945384,49.3904706 43.2587776,47.8971235 C47.7529259,46.0142076 50,43.1898338 50,39.4240021 C50,35.2686015 48.1118336,32.3306035 44.3355007,30.6100079 C41.2769831,29.2465171 36.7204161,28.5647717 30.6657997,28.5647717 C29.4174252,28.5647717 28.0910273,28.2563631 26.686606,27.6395458 C24.9388817,26.8604082 24.0650195,25.8702542 24.0650195,24.6690837 C24.0650195,22.9160241 24.8452536,21.6012294 26.4057217,20.7246996 C27.6540962,20.0104901 29.2145644,19.6533854 31.0871261,19.6533854 C33.3654096,19.6533854 35.4096229,20.2864347 37.2197659,21.5525333 C39.1235371,22.9160241 40.3250975,24.7340118 40.8244473,27.0064965 L40.8244473,27.0064965 L48.6423927,27.0064965 L48.6423927,14.3455104 L42.5097529,14.3455104 L42.5097529,17.559453 C41.3862159,16.5206029 39.7009103,15.6440731 37.4538362,14.9298636 C35.4252276,14.3130464 33.4902471,14.0046377 31.6488947,14.0046377 C26.4369311,13.9397096 22.4421326,14.5565269 19.6644993,15.8550895 C15.8881664,17.6730773 14,20.8220918 14,25.302133 C14,31.4378416 20.0702211,34.6193202 32.2106632,34.8465686 C34.6762029,34.9114968 36.4863459,35.2199054 37.6410923,35.7717945 C39.0455137,36.4535399 39.763329,37.6060143 39.7945384,39.2292177 C39.8257477,42.6704087 37.3602081,44.3910043 32.3979194,44.3910043 C31.2743823,44.3910043 30.0572172,44.3017281 28.7464239,44.1231757 C27.4356307,43.9446234 26,43.0924416 24.4395319,41.5666305 C22.7854356,39.9434271 21.9271782,38.3851519 21.8647594,36.8918048 L21.8647594,36.8918048 L14,36.8918048 L14,49.0658299 L20.1326398,49.0658299 L20.1326398,46.679721 C22.2548765,48.7574213 26.0624187,49.8611996 31.5552666,49.9910558 Z"></path> 
</svg>
