<svg viewBox="0 0 64 64" xmlns="http://www.w3.org/2000/svg">
  <circle fill="white" cx="32" cy="32" r="32"></circle>
  <path d="M38.7636364,46.3013699 L43.3454545,46.2650921 L50.5454545,27.6546056 C51.4181818,25.3811998 52.7272727,24.2444969 54.4727273,24.2444969 C54.9090909,24.2444969 55.4181818,24.3412376 56,24.5347189 L56,24.5347189 L56,20.5078885 C55.6606061,20.2176665 55.0181818,20.0725555 54.0727273,20.0725555 C52.2060606,20.0725555 50.8363636,20.6892773 49.9636364,21.9227208 C48.9454545,20.7376476 47.6363636,20.145111 46.0363636,20.145111 C44.9212121,20.145111 44.1575758,20.290222 43.7454545,20.580444 L43.7454545,20.580444 L43.7090909,24.3533302 C43.8545455,24.2807747 44.0363636,24.2444969 44.2545455,24.2444969 C44.6424242,24.2444969 45,24.3412376 45.3272727,24.5347189 C45.6545455,24.7282003 45.8181818,24.9821445 45.8181818,25.2965517 C45.8181818,25.5384034 44.3878788,29.1299008 41.5272727,36.0710439 C38.2787879,29.8070855 36.6545455,26.1914029 36.6545455,25.2239962 C36.6545455,24.5226264 37.0787879,24.1719414 37.9272727,24.1719414 C38.2909091,24.1719414 38.6545455,24.2324043 39.0181818,24.3533302 L39.0181818,24.3533302 L38.9818182,20.6529995 C37.8424242,20.2418517 36.969697,20.0362778 36.3636364,20.0362778 C35.6848485,20.0362778 34.9636364,20.2116202 34.2,20.5623051 C33.4363636,20.9129901 32.8727273,21.3543694 32.5090909,21.8864431 C31.7333333,21.2092584 31.0909091,20.7376476 30.5818182,20.4716108 C29.9272727,20.1572036 29.1636364,20 28.2909091,20 C27.030303,20 26.0848485,20.2781294 25.4545455,20.8343883 L25.4545455,20.8343883 L25.4545455,24.5347189 C25.8909091,24.1719414 26.3393939,23.9905527 26.8,23.9905527 C27.1878788,23.9905527 27.5393939,24.1114785 27.8545455,24.3533302 C28.169697,24.5951819 28.3272727,24.909589 28.3272727,25.2965517 C28.3272727,25.5384034 26.8969697,29.1299008 24.0363636,36.0710439 C20.7878788,29.8070855 19.1636364,26.1914029 19.1636364,25.2239962 C19.1636364,24.5226264 19.6,24.1719414 20.4727273,24.1719414 C20.8363636,24.1719414 21.1878788,24.2324043 21.5272727,24.3533302 L21.5272727,24.3533302 L21.5272727,20.6529995 C20.9212121,20.2418517 19.9151515,20.0362778 18.5090909,20.0362778 C17.0060606,20.0362778 15.8787879,20.6771847 15.1272727,21.9589986 C13.6969697,20.6529995 12.1333333,20 10.4363636,20 C9.44242424,20 8.63030303,20.2781294 8,20.8343883 L8,20.8343883 L8,24.5347189 C8.46060606,24.1477563 8.8969697,23.9663675 9.30909091,23.9905527 C10.1818182,24.0631082 10.8727273,24.4500709 11.3818182,25.1514407 C11.5272727,25.3449221 11.8424242,25.9616438 12.3272727,27.001606 L12.3272727,27.001606 L21.2727273,46.3013699 L25.8545455,46.2650921 L31.7090909,31.100992 L38.7636364,46.3013699 Z"></path>
</svg>
