<svg viewBox="0 0 72 64" xmlns="http://www.w3.org/2000/svg">
  <path d="M35.015631,0.000392144703 L35.609883,0.00515302648 C37.6558301,0.00515302648 39.8058084,0.347829288 42.0598179,1.03318181 C44.556567,1.82674789 46.4291287,2.80066989 47.6775033,3.95494783 L47.6775033,3.95494783 L47.6775033,0.383900473 L54.4915475,0.383900473 L54.4915475,14.4516628 L45.8049415,14.4516628 L45.7244463,14.1104771 C45.1271266,11.7440881 43.8188911,9.83783024 41.7997399,8.39170363 C39.7884699,6.9849274 37.5171218,6.28153928 34.9856957,6.28153928 C32.9050715,6.28153928 31.171218,6.67832232 29.7841352,7.4718884 C28.0502818,8.44581041 27.183355,9.90669341 27.183355,11.8545374 C27.183355,13.1891713 28.154313,14.2893424 30.0962289,15.1550509 C31.656697,15.8404034 33.1304725,16.1830797 34.5175553,16.1830797 C41.2449068,16.1830797 46.307759,16.9405746 49.7061118,18.4555643 C52.9259214,19.9225934 54.9103451,22.1861421 55.6593831,25.2462106 C65.5681491,27.7647682 72,32.1815612 72,37.35 C72,42.27 69.2849162,46.78 64.7597765,50.47 C67.1731844,51.7 68.3798883,53.2375 68.2793296,54.8775 C68.2793296,60.8225 51.9888268,64 36.603352,64 C21.3184358,64 4.9273743,60.8225 4.9273743,54.8775 C4.9273743,53.4425 5.83240223,52.11 7.74301676,50.88 C2.91620112,47.19 0,42.475 0,37.35 C0,29.7301189 14.3409716,23.5999532 33.1853616,23.0414829 C21.7281566,22.3356376 16,18.8406594 16,12.5579255 C16,7.58010196 18.0979627,4.08119697 22.2938882,2.06121059 C25.3801474,0.618363178 29.8188123,-0.0669893443 35.609883,0.00515302648 Z M68.625,44.6388889 C67.3101341,45.5266842 65.7929811,46.4144794 63.9723975,47.2036308 C58.7129338,49.7683727 50.216877,51.9385389 36.5625,51.9385389 C22.908123,51.9385389 14.4120662,49.8670166 9.15260252,47.2036308 C7.33201893,46.4144794 5.81486593,45.6253281 4.5,44.6388889 C9.25374606,51.9385389 21.7955442,57.1666667 36.5625,57.1666667 C51.3294558,57.1666667 63.8712539,51.9385389 68.625,44.6388889 Z M55.9926601,27.7919159 L55.9960663,27.9051441 L55.9960663,27.9051441 L56,28.2488912 C56,32.4331487 53.503251,35.5713418 48.5097529,37.6634706 C44.6605982,39.3227451 40.3259645,40.0982756 35.5058518,39.990062 C29.4026875,39.8457773 25.172085,38.619357 22.8140442,36.3108011 L22.8140442,36.3108011 L22.8140442,38.9620332 L16,38.9620332 L16.0003657,27.793901 C7.46652159,30.2234918 2.37219516,34.0600408 2.25,37.7011574 C2.44970414,38.3275463 3.64792899,42.6078704 10.9371302,46.0530093 C16.5288462,48.4541667 24.4171598,50.124537 33.9031065,50.3333333 L33.9031065,50.3333333 L38.1967456,50.3333333 C47.9822485,50.124537 56.0702663,48.3497685 61.6619822,45.844213 C62.9600592,45.1134259 64.058432,44.487037 64.9571006,43.8606481 C68.8513314,41.0418981 69.6501479,38.2231481 69.75,37.7011574 C69.6277716,34.059049 64.5307028,30.2214017 55.9926601,27.7919159 Z M36,25.2777778 C31.9839906,25.2777778 28.2318476,25.5369376 24.7971701,25.999218 C25.0343034,27.4860396 25.9688561,29.0294202 27.5994798,30.6295894 C29.3333333,32.3249351 30.9284785,33.2718037 32.3849155,33.4701953 C33.8413524,33.6685868 35.1937581,33.7677825 36.4421326,33.7677825 C41.9557867,33.7677825 44.6952752,31.8560097 44.6605982,28.0324641 C44.6424854,27.0904136 44.4162339,26.2910604 43.981844,25.6344047 C41.4602872,25.4032165 38.794002,25.2777778 36,25.2777778 Z"></path>
</svg>
