<svg viewBox="0 0 64 64" xmlns="http://www.w3.org/2000/svg">
  <circle fill="white" cx="32" cy="32" r="32"></circle>
  <path d="M38.7636364,48 L43.3454545,47.9586207 L50.5454545,26.7310345 C51.4181818,24.137931 52.7272727,22.8413793 54.4727273,22.8413793 C54.9090909,22.8413793 55.4181818,22.9517241 56,23.1724138 L56,23.1724138 L56,18.5793103 C55.6606061,18.2482759 55.0181818,18.0827586 54.0727273,18.0827586 C52.2060606,18.0827586 50.8363636,18.7862069 49.9636364,20.1931034 C48.9454545,18.8413793 47.6363636,18.1655172 46.0363636,18.1655172 C44.9212121,18.1655172 44.1575758,18.3310345 43.7454545,18.662069 L43.7454545,18.662069 L43.7090909,22.9655172 C43.8545455,22.8827586 44.0363636,22.8413793 44.2545455,22.8413793 C44.6424242,22.8413793 45,22.9517241 45.3272727,23.1724138 C45.6545455,23.3931034 45.8181818,23.6827586 45.8181818,24.0413793 C45.8181818,24.3172414 44.3878788,28.4137931 41.5272727,36.3310345 C38.2787879,29.1862069 36.6545455,25.062069 36.6545455,23.9586207 C36.6545455,23.1586207 37.0787879,22.7586207 37.9272727,22.7586207 C38.2909091,22.7586207 38.6545455,22.8275862 39.0181818,22.9655172 L39.0181818,22.9655172 L38.9818182,18.7448276 C37.8424242,18.2758621 36.969697,18.0413793 36.3636364,18.0413793 C35.6848485,18.0413793 34.9636364,18.2413793 34.2,18.6413793 C33.4363636,19.0413793 32.8727273,19.5448276 32.5090909,20.1517241 C31.7333333,19.3793103 31.0909091,18.8413793 30.5818182,18.537931 C29.9272727,18.1793103 29.1636364,18 28.2909091,18 C27.030303,18 26.0848485,18.3172414 25.4545455,18.9517241 L25.4545455,18.9517241 L25.4545455,23.1724138 C25.8909091,22.7586207 26.3393939,22.5517241 26.8,22.5517241 C27.1878788,22.5517241 27.5393939,22.6896552 27.8545455,22.9655172 C28.169697,23.2413793 28.3272727,23.6 28.3272727,24.0413793 C28.3272727,24.3172414 26.8969697,28.4137931 24.0363636,36.3310345 C20.7878788,29.1862069 19.1636364,25.062069 19.1636364,23.9586207 C19.1636364,23.1586207 19.6,22.7586207 20.4727273,22.7586207 C20.8363636,22.7586207 21.1878788,22.8275862 21.5272727,22.9655172 L21.5272727,22.9655172 L21.5272727,18.7448276 C20.9212121,18.2758621 19.9151515,18.0413793 18.5090909,18.0413793 C17.0060606,18.0413793 15.8787879,18.7724138 15.1272727,20.2344828 C13.6969697,18.7448276 12.1333333,18 10.4363636,18 C9.44242424,18 8.63030303,18.3172414 8,18.9517241 L8,18.9517241 L8,23.1724138 C8.46060606,22.7310345 8.8969697,22.5241379 9.30909091,22.5517241 C10.1818182,22.6344828 10.8727273,23.0758621 11.3818182,23.8758621 C11.5272727,24.0965517 11.8424242,24.8 12.3272727,25.9862069 L12.3272727,25.9862069 L21.2727273,48 L25.8545455,47.9586207 L31.7090909,30.662069 L38.7636364,48 Z"></path>  
</svg>
