<svg viewBox="0 0 72 56" xmlns="http://www.w3.org/2000/svg">
  <path d="M64.7597765,42.47 C69.2849162,38.78 72,34.27 72,29.35 C72,21.2525 56.2122905,15 36,15 C15.7877095,15 0,21.355 0,29.35 C0,34.475 2.91620112,39.19 7.74301676,42.88 C5.83240223,44.11 4.9273743,45.4425 4.9273743,46.8775 C4.9273743,52.8225 21.3184358,56 36.603352,56 C51.9888268,56 68.2793296,52.8225 68.2793296,46.8775 C68.3798883,45.2375 67.1731844,43.7 64.7597765,42.47 Z M36,17.2777778 C56.0702663,17.2777778 69.5502959,23.750463 69.75,29.7011574 C69.6501479,30.2231481 68.8513314,33.0418981 64.9571006,35.8606481 C64.058432,36.487037 62.9600592,37.1134259 61.6619822,37.844213 C56.0702663,40.3497685 47.9822485,42.124537 38.1967456,42.3333333 C37.4977811,42.3333333 36.6989645,42.3333333 36,42.3333333 C35.3010355,42.3333333 34.602071,42.3333333 33.9031065,42.3333333 C24.4171598,42.124537 16.5288462,40.4541667 10.9371302,38.0530093 C3.64792899,34.6078704 2.44970414,30.3275463 2.25,29.7011574 C2.44970414,23.750463 15.9297337,17.2777778 36,17.2777778 Z M4.5,36.6388889 C5.81486593,37.6253281 7.33201893,38.4144794 9.15260252,39.2036308 C14.4120662,41.8670166 22.908123,43.9385389 36.5625,43.9385389 C50.216877,43.9385389 58.7129338,41.7683727 63.9723975,39.2036308 C65.7929811,38.4144794 67.3101341,37.5266842 68.625,36.6388889 C63.8712539,43.9385389 51.3294558,49.1666667 36.5625,49.1666667 C21.7955442,49.1666667 9.25374606,43.9385389 4.5,36.6388889 Z" ></path>
  <path d="M45.0181818,35.0684932 L51.1272727,35.0201228 L60.7272727,10.2061408 C61.8909091,7.17493308 63.6363636,5.65932924 65.9636364,5.65932924 C66.5454545,5.65932924 67.2242424,5.7883168 68,6.04629192 L68,6.04629192 L68,0.677184695 C67.5474747,0.290222012 66.6909091,0.0967406708 65.430303,0.0967406708 C62.9414141,0.0967406708 61.1151515,0.919036372 59.9515152,2.56362778 C58.5939394,0.983530153 56.8484848,0.193481342 54.7151515,0.193481342 C53.2282828,0.193481342 52.210101,0.386962683 51.6606061,0.773925366 L51.6606061,0.773925366 L51.6121212,5.80444025 C51.8060606,5.70769957 52.0484848,5.65932924 52.3393939,5.65932924 C52.8565657,5.65932924 53.3333333,5.7883168 53.769697,6.04629192 C54.2060606,6.30426704 54.4242424,6.64285939 54.4242424,7.06206897 C54.4242424,7.38453787 52.5171717,12.1732011 48.7030303,21.4280586 C44.3717172,13.076114 42.2060606,8.2552039 42.2060606,6.96532829 C42.2060606,6.03016848 42.7717172,5.56258857 43.9030303,5.56258857 C44.3878788,5.56258857 44.8727273,5.64320579 45.3575758,5.80444025 L45.3575758,5.80444025 L45.3090909,0.870666037 C43.789899,0.322468903 42.6262626,0.0483703354 41.8181818,0.0483703354 C40.9131313,0.0483703354 39.9515152,0.28216029 38.9333333,0.749740198 C37.9151515,1.21732011 37.1636364,1.80582585 36.6787879,2.51525744 C35.6444444,1.61234451 34.7878788,0.983530153 34.1090909,0.62881436 C33.2363636,0.209604787 32.2181818,1.42108547e-14 31.0545455,1.42108547e-14 C29.3737374,1.42108547e-14 28.1131313,0.370839238 27.2727273,1.11251771 L27.2727273,1.11251771 L27.2727273,6.04629192 C27.8545455,5.56258857 28.4525253,5.32073689 29.0666667,5.32073689 C29.5838384,5.32073689 30.0525253,5.48197134 30.4727273,5.80444025 C30.8929293,6.12690915 31.1030303,6.54611872 31.1030303,7.06206897 C31.1030303,7.38453787 29.1959596,12.1732011 25.3818182,21.4280586 C21.0505051,13.076114 18.8848485,8.2552039 18.8848485,6.96532829 C18.8848485,6.03016848 19.4666667,5.56258857 20.630303,5.56258857 C21.1151515,5.56258857 21.5838384,5.64320579 22.0363636,5.80444025 L22.0363636,5.80444025 L22.0363636,0.870666037 C21.2282828,0.322468903 19.8868687,0.0483703354 18.0121212,0.0483703354 C16.0080808,0.0483703354 14.5050505,0.902912927 13.5030303,2.61199811 C11.5959596,0.870666037 9.51111111,1.42108547e-14 7.24848485,1.42108547e-14 C5.92323232,1.42108547e-14 4.84040404,0.370839238 4,1.11251771 L4,1.11251771 L4,6.04629192 C4.61414141,5.53034168 5.1959596,5.28849 5.74545455,5.32073689 C6.90909091,5.41747756 7.83030303,5.93342781 8.50909091,6.86858762 C8.7030303,7.12656275 9.12323232,7.94885845 9.76969697,9.33547473 L9.76969697,9.33547473 L21.6969697,35.0684932 L27.8060606,35.0201228 L35.6121212,14.8013226 L45.0181818,35.0684932 Z"></path>
</svg>
