<svg viewBox="0 0 72 60" xmlns="http://www.w3.org/2000/svg">
  <path d="M64.7597765,46.47 C69.2849162,42.78 72,38.27 72,33.35 C72,25.2525 56.2122905,19 36,19 C15.7877095,19 0,25.355 0,33.35 C0,38.475 2.91620112,43.19 7.74301676,46.88 C5.83240223,48.11 4.9273743,49.4425 4.9273743,50.8775 C4.9273743,56.8225 21.3184358,60 36.603352,60 C51.9888268,60 68.2793296,56.8225 68.2793296,50.8775 C68.3798883,49.2375 67.1731844,47.7 64.7597765,46.47 Z M36,21.2777778 C56.0702663,21.2777778 69.5502959,27.750463 69.75,33.7011574 C69.6501479,34.2231481 68.8513314,37.0418981 64.9571006,39.8606481 C64.058432,40.487037 62.9600592,41.1134259 61.6619822,41.844213 C56.0702663,44.3497685 47.9822485,46.124537 38.1967456,46.3333333 C37.4977811,46.3333333 36.6989645,46.3333333 36,46.3333333 C35.3010355,46.3333333 34.602071,46.3333333 33.9031065,46.3333333 C24.4171598,46.124537 16.5288462,44.4541667 10.9371302,42.0530093 C3.64792899,38.6078704 2.44970414,34.3275463 2.25,33.7011574 C2.44970414,27.750463 15.9297337,21.2777778 36,21.2777778 Z M4.5,40.6388889 C5.81486593,41.6253281 7.33201893,42.4144794 9.15260252,43.2036308 C14.4120662,45.8670166 22.908123,47.9385389 36.5625,47.9385389 C50.216877,47.9385389 58.7129338,45.7683727 63.9723975,43.2036308 C65.7929811,42.4144794 67.3101341,41.5266842 68.625,40.6388889 C63.8712539,47.9385389 51.3294558,53.1666667 36.5625,53.1666667 C21.7955442,53.1666667 9.25374606,47.9385389 4.5,40.6388889 Z"></path>
  <path d="M45.0181818,40 L51.1272727,39.9448276 L60.7272727,11.6413793 C61.8909091,8.18390805 63.6363636,6.45517241 65.9636364,6.45517241 C66.5454545,6.45517241 67.2242424,6.60229885 68,6.89655172 L68,6.89655172 L68,0.772413793 C67.5474747,0.331034483 66.6909091,0.110344828 65.430303,0.110344828 C62.9414141,0.110344828 61.1151515,1.04827586 59.9515152,2.92413793 C58.5939394,1.12183908 56.8484848,0.220689655 54.7151515,0.220689655 C53.2282828,0.220689655 52.210101,0.44137931 51.6606061,0.882758621 L51.6606061,0.882758621 L51.6121212,6.62068966 C51.8060606,6.51034483 52.0484848,6.45517241 52.3393939,6.45517241 C52.8565657,6.45517241 53.3333333,6.60229885 53.769697,6.89655172 C54.2060606,7.1908046 54.4242424,7.57701149 54.4242424,8.05517241 C54.4242424,8.42298851 52.5171717,13.8850575 48.7030303,24.4413793 C44.3717172,14.9149425 42.2060606,9.41609195 42.2060606,7.94482759 C42.2060606,6.87816092 42.7717172,6.34482759 43.9030303,6.34482759 C44.3878788,6.34482759 44.8727273,6.43678161 45.3575758,6.62068966 L45.3575758,6.62068966 L45.3090909,0.993103448 C43.789899,0.367816092 42.6262626,0.0551724138 41.8181818,0.0551724138 C40.9131313,0.0551724138 39.9515152,0.32183908 38.9333333,0.855172414 C37.9151515,1.38850575 37.1636364,2.05977011 36.6787879,2.86896552 C35.6444444,1.83908046 34.7878788,1.12183908 34.1090909,0.717241379 C33.2363636,0.23908046 32.2181818,0 31.0545455,0 C29.3737374,0 28.1131313,0.422988506 27.2727273,1.26896552 L27.2727273,1.26896552 L27.2727273,6.89655172 C27.8545455,6.34482759 28.4525253,6.06896552 29.0666667,6.06896552 C29.5838384,6.06896552 30.0525253,6.25287356 30.4727273,6.62068966 C30.8929293,6.98850575 31.1030303,7.46666667 31.1030303,8.05517241 C31.1030303,8.42298851 29.1959596,13.8850575 25.3818182,24.4413793 C21.0505051,14.9149425 18.8848485,9.41609195 18.8848485,7.94482759 C18.8848485,6.87816092 19.4666667,6.34482759 20.630303,6.34482759 C21.1151515,6.34482759 21.5838384,6.43678161 22.0363636,6.62068966 L22.0363636,6.62068966 L22.0363636,0.993103448 C21.2282828,0.367816092 19.8868687,0.0551724138 18.0121212,0.0551724138 C16.0080808,0.0551724138 14.5050505,1.02988506 13.5030303,2.97931034 C11.5959596,0.993103448 9.51111111,0 7.24848485,0 C5.92323232,0 4.84040404,0.422988506 4,1.26896552 L4,1.26896552 L4,6.89655172 C4.61414141,6.30804598 5.1959596,6.03218391 5.74545455,6.06896552 C6.90909091,6.17931034 7.83030303,6.76781609 8.50909091,7.83448276 C8.7030303,8.12873563 9.12323232,9.06666667 9.76969697,10.6482759 L9.76969697,10.6482759 L21.6969697,40 L27.8060606,39.9448276 L35.6121212,16.8827586 L45.0181818,40 Z"></path>
</svg>
